<svg xmlns="http://www.w3.org/2000/svg" viewBox="0 0 512 512">
  <defs>
    <linearGradient id="g" x1="0%" y1="0%" x2="100%" y2="100%">
      <stop offset="0%" stop-color="#5b9bff"/>
      <stop offset="50%" stop-color="#7c6bff"/>
      <stop offset="100%" stop-color="#b06bff"/>
    </linearGradient>
  </defs>
  <rect width="512" height="512" rx="128" fill="#05080f"/>
  <path d="M256 96c-88 0-160 72-160 160 0 120 160 240 160 240s160-120 160-240c0-88-72-160-160-160z" fill="url(#g)" opacity="0.15"/>
  <path d="M256 120c-72 0-132 60-132 132 0 100 132 200 132 200s132-100 132-200c0-72-60-132-132-132z" stroke="url(#g)" stroke-width="18" fill="none" stroke-linejoin="round"/>
  <circle cx="256" cy="252" r="52" fill="url(#g)"/>
  <circle cx="256" cy="252" r="24" fill="#fff"/>
</svg>
